<svg width="100" height="100" viewBox="0 0 100 100" fill="none" xmlns="http://www.w3.org/2000/svg">
<path d="M20.3205 93.7545C19.5466 96.0763 18.1067 97.6062 15.8209 98.2182C12.7791 99.0281 9.73738 97.4622 8.53147 94.4925C8.29749 93.8985 8.00952 93.6825 7.39756 93.7365C6.87561 93.7725 6.35365 93.7725 5.84969 93.7005C3.45588 93.3406 1.80001 91.4507 1.78201 88.9669C1.74602 83.8373 1.76401 78.7077 1.78201 73.5601C1.78201 73.1822 1.962 72.7322 2.19598 72.4262C3.70786 70.3564 5.23774 68.3046 6.82161 66.2707C7.07359 65.9467 7.59555 65.7128 8.00952 65.6948C10.0434 65.6408 12.0952 65.6768 14.183 65.6768V29.7336C10.1153 29.1217 6.82161 27.2498 4.4098 23.9201C2.48396 21.2383 1.56603 18.2326 1.80001 14.9388C2.32197 7.93738 7.54155 2.53781 14.399 1.79987C21.4544 1.04393 28.7799 6.01153 29.8418 14.1649H35.9973C36.0693 13.265 36.0873 12.329 36.2313 11.4111C36.8072 7.6854 39.939 4.94962 43.7187 4.87763C46.2205 4.84163 48.7223 4.85963 51.2241 4.87763C51.728 4.87763 52.016 4.75164 52.268 4.26567C53.1499 2.60981 54.5718 1.74588 56.4616 1.74588C63.6791 1.74588 70.8785 1.74588 78.0959 1.74588C79.9858 1.74588 81.4076 2.59181 82.2896 4.24768C82.5416 4.73364 82.8295 4.87763 83.3515 4.85963C85.7273 4.84163 88.1031 4.84163 90.4609 4.85963C95.1225 4.89562 98.4343 8.20736 98.4523 12.869C98.4523 35.5832 98.4523 58.2794 98.4523 80.9935C98.4523 85.7452 95.0865 89.0569 90.3349 89.0749C77.8619 89.0749 65.3889 89.0749 52.9159 89.0749H51.8C51.1161 92.6386 50.0002 93.4305 45.3745 93.8085C44.9966 94.5105 44.6906 95.2304 44.2406 95.8424C42.8727 97.7142 40.9649 98.6141 38.6611 98.3801C36.2493 98.1282 34.4674 96.8323 33.5495 94.5645C33.2795 93.8805 32.9375 93.7185 32.2716 93.7365C28.3119 93.7545 24.3522 93.7365 20.3385 93.7365L20.3205 93.7545ZM45.5005 59.4673H51.71V79.6616H89.039V14.2189C87.0232 14.2189 85.0793 14.2009 83.1355 14.2369C82.8655 14.2369 82.5056 14.5249 82.3616 14.7768C81.3716 16.4687 79.9318 17.3326 77.9699 17.3326C70.8605 17.3326 63.7331 17.3326 56.6236 17.3326C54.6798 17.3326 53.2039 16.5047 52.232 14.7768C52.106 14.5609 51.854 14.2549 51.656 14.2369C49.6222 14.2009 47.5884 14.2189 45.4825 14.2189V59.4493L45.5005 59.4673ZM36.0153 59.4673V17.3866H29.8418C28.5279 24.3521 24.3882 28.4737 17.4408 29.7876V65.6408H20.5005V59.4673H36.0153ZM48.4883 84.3773V62.635H42.2968V68.7545H29.8238V62.635H23.6863V84.3773H48.4883ZM82.9195 11.1051C84.8094 11.1051 86.6452 11.1051 88.4991 11.1051C91.0909 11.1051 92.2248 12.239 92.2248 14.8308C92.2248 36.2311 92.2248 57.6314 92.2248 79.0497C92.2248 81.7135 91.0909 82.8294 88.4271 82.8294C76.566 82.8294 64.723 82.8294 52.8619 82.8294C52.484 82.8294 52.106 82.8294 51.728 82.8294V85.9431H52.9339C65.2449 85.9431 77.556 85.8891 89.867 85.9791C92.9267 85.9971 95.3925 84.1073 95.3745 80.4356C95.2845 59.4493 95.3385 38.4629 95.3385 17.4946C95.3385 15.8387 95.3565 14.1829 95.3385 12.527C95.2845 10.0072 93.3227 8.02737 90.8029 7.99138C88.3371 7.95538 85.8713 7.99138 83.4055 7.99138C83.2615 7.99138 83.0995 8.02737 82.9375 8.06337V11.1051H82.9195ZM26.728 15.8208C26.728 9.79123 21.8864 4.89562 15.8749 4.87763C9.86337 4.87763 4.94976 9.73724 4.91376 15.7308C4.87777 21.7063 9.80937 26.6739 15.8029 26.6919C21.7964 26.7099 26.728 21.8143 26.746 15.8028L26.728 15.8208ZM20.4465 68.8085C16.9728 68.8085 13.6071 68.8445 10.2413 68.7905C9.19742 68.7725 8.51347 69.0605 7.93752 69.9424C7.0016 71.3463 5.56171 72.5342 5.05775 74.0461C4.55379 75.558 4.91376 77.3758 4.91376 79.0677C4.91376 80.8136 4.91376 82.5594 4.91376 84.3413H20.4465V68.8085ZM67.3148 4.85963C63.7691 4.85963 60.2413 4.85963 56.6956 4.85963C55.3637 4.85963 54.8058 5.41758 54.8058 6.76747C54.8058 8.62133 54.8058 10.4752 54.8058 12.329C54.8058 13.6429 55.3997 14.2189 56.7316 14.2189C63.7871 14.2189 70.8245 14.2189 77.8799 14.2189C79.2118 14.2189 79.7518 13.6609 79.7518 12.293C79.7518 10.4752 79.7518 8.65732 79.7518 6.83947C79.7518 5.36359 79.2478 4.85963 77.7539 4.85963C74.2802 4.85963 70.8065 4.85963 67.3328 4.85963H67.3148ZM42.3148 59.4133V58.1714C42.3148 44.4025 42.3148 30.6336 42.3148 16.8647C42.3148 15.9827 42.2968 15.1188 42.3148 14.2369C42.3868 12.401 43.6647 11.1591 45.5005 11.1051C45.9865 11.1051 46.4724 11.1051 46.9584 11.1051C48.5063 11.1051 50.0542 11.1051 51.584 11.1051V7.99138C49.1362 7.99138 46.7604 7.99138 44.4026 7.99138C41.0909 7.99138 39.201 9.88122 39.201 13.175C39.201 28.2398 39.201 43.3046 39.201 58.3693V59.4133H42.3148ZM34.7554 87.599H18.6827C19.2766 88.6069 19.8526 89.5609 20.4825 90.6228C24.4422 90.6228 28.5279 90.6228 32.6315 90.6228C32.8475 90.6228 33.1715 90.5148 33.2795 90.3348C33.8195 89.4349 34.2874 88.4989 34.7734 87.599H34.7554ZM17.3688 92.1346C17.3688 90.4248 15.9649 89.0569 14.255 89.0749C12.5632 89.0749 11.1593 90.4788 11.1413 92.1706C11.1413 93.8805 12.6351 95.3384 14.327 95.3024C16.0189 95.2664 17.3688 93.8445 17.3508 92.1346H17.3688ZM42.3148 92.1886C42.3148 90.4608 40.9649 89.0929 39.237 89.0749C37.5272 89.0749 36.1233 90.4428 36.0873 92.1346C36.0513 93.8265 37.5272 95.3204 39.237 95.3024C40.9289 95.3024 42.3148 93.8805 42.3148 92.1886ZM33.0095 65.6228H39.129V62.617H33.0095V65.6228ZM9.82737 87.599H4.89576C4.89576 88.031 4.89576 88.3909 4.89576 88.7509C4.93176 90.0468 5.50772 90.6048 6.82161 90.6408C7.10959 90.6408 7.41556 90.7128 7.68554 90.6228C7.93752 90.5508 8.2435 90.3708 8.36949 90.1368C8.87345 89.3269 9.32341 88.4629 9.82737 87.599ZM48.4703 87.599H43.6107C44.2046 88.6069 44.7986 89.5968 45.3925 90.6048C48.2723 90.7488 48.7583 90.2988 48.4703 87.599Z" fill="#166DD6"/>
<path d="M85.925 76.5479H67.3325V61.0691H85.925V76.5479ZM82.8113 64.1828H70.4643V73.4161H82.8113V64.1828Z" fill="#166DD6"/>
<path d="M68.7907 20.5004V23.5061H48.6323V20.5004H68.7907Z" fill="#166DD6"/>
<path d="M48.6143 35.9791V32.9913H68.7906V35.9791H48.6143Z" fill="#166DD6"/>
<path d="M68.7907 39.2189V42.2246H48.6323V39.2189H68.7907Z" fill="#166DD6"/>
<path d="M48.6499 51.6739H68.7543V54.6976H48.6499V51.6739Z" fill="#166DD6"/>
<path d="M72.2822 21.3823C73.1462 20.7343 73.9201 20.1584 74.784 19.5104C77.5378 23.1821 80.2736 26.8179 83.1174 30.5975C83.7113 29.8776 84.2153 29.2657 84.7732 28.5997C85.6012 29.4816 86.2671 30.2016 86.8971 30.8855C85.5292 32.2534 84.1073 33.6753 82.6314 35.1512C79.2477 30.6335 75.8099 26.0619 72.3002 21.3823H72.2822Z" fill="#166DD6"/>
<path d="M74.7661 38.2289C77.5379 41.9186 80.2377 45.5184 83.0274 49.2261C83.6574 48.6321 84.2513 48.0562 84.8993 47.4442C85.5832 48.2001 86.2492 48.9381 86.8791 49.64C85.5472 50.9719 84.1253 52.3758 82.6315 53.8877C79.2477 49.3881 75.81 44.7984 72.3003 40.1188C73.1282 39.4888 73.9202 38.8949 74.7841 38.2469L74.7661 38.2289Z" fill="#166DD6"/>
<path d="M68.7903 26.7458V29.7516H54.8774V26.7458H68.7903Z" fill="#166DD6"/>
<path d="M54.8774 45.4644H68.7723V48.4701H54.8774V45.4644Z" fill="#166DD6"/>
<path d="M54.8594 64.0569V61.0691H64.1106V64.0569H54.8594Z" fill="#166DD6"/>
<path d="M54.8774 67.2606H64.0747V70.3024H54.8774V67.2606Z" fill="#166DD6"/>
<path d="M64.0926 76.5479H54.8594V73.5601H64.0926V76.5479Z" fill="#166DD6"/>
<path d="M48.6323 26.7278H51.6381V29.7336H48.6323V26.7278Z" fill="#166DD6"/>
<path d="M51.6197 48.4881H48.6499V45.4644H51.6197V48.4881Z" fill="#166DD6"/>
<path d="M8.63916 12.131C9.28711 11.4831 9.95305 10.7811 10.619 10.0972C13.3368 12.8329 16.0366 15.5327 18.9163 18.4125C19.6003 17.5306 20.1582 16.8106 20.7702 16.0367C21.6881 16.9906 22.3541 17.6926 22.948 18.3045C21.5981 19.6544 20.2122 21.0223 18.8803 22.3542C15.5686 19.0425 12.1309 15.6047 8.65716 12.131H8.63916Z" fill="#166DD6"/>
</svg>
