<svg width="97" height="100" viewBox="0 0 97 100" fill="none" xmlns="http://www.w3.org/2000/svg">
<g clip-path="url(#clip0_108_8998)">
<mask id="mask0_108_8998" style="mask-type:luminance" maskUnits="userSpaceOnUse" x="0" y="0" width="97" height="100">
<path d="M0 0H97V100H0V0Z" fill="white"/>
</mask>
<g mask="url(#mask0_108_8998)">
<path d="M53.8075 22.0302H54.9074C65.2429 22.0302 75.5784 22.0302 85.9139 22.0302C87.6598 22.0302 88.0962 22.4802 88.0962 24.262C88.0962 45.6443 88.0962 67.0086 88.0962 88.3909C88.0962 90.1908 87.6598 90.6407 85.9314 90.6407C84.6743 90.6407 83.4173 90.6407 82.0381 90.6407C82.0381 91.9186 82.0381 93.1425 82.0381 94.3664C82.0381 96.5083 81.6889 96.8862 79.6463 96.8862C65.1207 96.8862 50.5951 96.8862 36.0696 96.8862C33.992 96.8862 33.6428 96.5263 33.6428 94.4204C33.6428 81.1015 33.6428 67.7826 33.6428 54.4636V53.2217C32.9096 53.2217 32.2462 53.2217 31.6002 53.2217C29.5575 53.2037 28.091 51.9258 27.8466 49.874C27.7593 49.208 27.5149 48.9201 26.9387 48.7221C26.0134 48.3981 25.158 47.9122 24.2327 47.5882C23.8835 47.4622 23.3597 47.5162 23.0629 47.7142C21.2298 49.0281 19.4665 48.9201 17.8777 47.3002C16.935 46.3463 15.9922 45.3924 15.0669 44.4024C13.6353 42.8726 13.5131 40.9647 14.7526 39.2908C15.1193 38.8049 15.1891 38.4089 14.9098 37.887C14.6828 37.473 14.4558 37.023 14.3162 36.5551C13.9321 35.1872 13.4083 34.2152 11.7847 33.9813C10.3531 33.7653 9.48014 32.1814 9.44522 30.5795C9.42776 29.0497 9.42776 27.5198 9.44522 26.0079C9.48014 24.0461 10.7372 22.5342 12.6576 22.3002C13.3385 22.2102 13.6178 21.9222 13.8273 21.2923C14.1241 20.4104 14.4908 19.5464 14.8923 18.7005C15.1367 18.1785 15.1542 17.7826 14.7701 17.2966C13.4782 15.5687 13.6178 13.6789 15.0844 12.113C16.0446 11.0871 17.0223 10.0792 18.0349 9.08926C19.4839 7.66737 21.352 7.54138 22.9233 8.80128C23.4296 9.19725 23.8137 9.23325 24.3723 8.96327C25.2453 8.5313 26.188 8.22533 27.061 7.77536C27.3752 7.61338 27.7244 7.18141 27.7768 6.83944C28.1434 4.64361 29.5052 3.36572 31.6526 3.34772C33.0143 3.34772 34.3586 3.34772 35.7204 3.34772C37.7631 3.36572 39.2121 4.64361 39.4566 6.71345C39.5439 7.37939 39.8057 7.68537 40.3819 7.84736C40.7485 7.93735 41.1151 8.06334 41.4468 8.26132C42.7213 8.94527 43.8212 9.43123 45.2703 8.31532C46.3702 7.46939 47.8716 7.82936 48.9366 8.83728C50.1761 9.98919 51.3633 11.2131 52.4807 12.473C53.6679 13.8049 53.6853 15.7487 52.568 17.2066C52.149 17.7646 52.1315 18.1785 52.4108 18.7905C52.8997 19.8344 53.3187 20.9323 53.7901 22.0662L53.8075 22.0302ZM36.7505 31.4255V93.6825H78.9828V31.4255H36.7505ZM33.6254 42.3506C32.927 42.2606 32.2985 42.2066 31.67 42.1166C24.704 41.1267 19.6236 34.6472 20.0775 27.3038C20.514 20.0864 26.5023 14.2008 33.5206 14.2548C38.7408 14.2908 42.7388 16.7027 45.4798 21.3283C45.6544 21.6163 45.9861 21.9762 46.248 21.9942C47.6272 22.0662 49.0064 22.0302 50.5253 22.0302C50.1936 21.2563 49.9317 20.5723 49.6349 19.9064C48.9191 18.3585 48.954 16.8826 50.0365 15.5327C50.4729 14.9928 50.3856 14.5788 49.9143 14.1109C49.0763 13.2829 48.2382 12.437 47.4526 11.5551C46.9463 10.9971 46.5273 10.9431 45.9337 11.4471C44.7116 12.473 43.3673 12.527 41.9531 11.879C40.9755 11.4291 39.9978 10.9971 39.0026 10.6011C37.5361 10.0252 36.6632 8.96327 36.541 7.3614C36.4886 6.64145 36.1743 6.40747 35.5109 6.42547C34.3063 6.46147 33.1191 6.46147 31.9144 6.42547C31.2161 6.40747 30.9018 6.64145 30.832 7.41539C30.6923 8.98127 29.8543 10.0252 28.4227 10.6011C27.5149 10.9611 26.5896 11.3031 25.7166 11.753C24.1628 12.563 22.6963 12.545 21.3171 11.3931C20.8282 10.9791 20.4441 11.0331 20.0077 11.5011C19.1522 12.419 18.2967 13.3189 17.4063 14.1828C16.9 14.6688 16.935 15.0828 17.354 15.6047C18.3666 16.9006 18.4364 18.3045 17.7904 19.7984C17.3714 20.7703 16.9524 21.7602 16.5858 22.7502C16.0097 24.298 14.9796 25.216 13.3734 25.342C12.7274 25.396 12.5005 25.7019 12.5005 26.3319C12.5179 27.6278 12.5179 28.9237 12.5005 30.2376C12.5005 30.9035 12.7624 31.1555 13.3909 31.2095C14.9971 31.3535 16.0271 32.2894 16.5858 33.8373C16.9 34.7192 17.2143 35.6011 17.6159 36.4471C18.4189 38.0849 18.4189 39.6148 17.2667 41.0727C16.9 41.5407 16.935 41.9366 17.354 42.3506C18.2269 43.2325 19.1173 44.1145 19.9553 45.0324C20.4441 45.5723 20.8632 45.5543 21.4044 45.1044C22.6265 44.0965 23.9708 44.0065 25.3849 44.6544C26.415 45.1224 27.4625 45.5723 28.51 46.0043C29.6797 46.4903 30.413 47.3542 30.7447 48.5961C31.1288 50.126 31.1288 50.126 32.6826 50.108C32.9794 50.108 33.2937 50.09 33.6254 50.072V42.3866V42.3506ZM85.041 87.473V25.216H42.7737V28.2577H43.926C55.8676 28.2577 67.8093 28.2577 79.751 28.2577C81.6715 28.2577 82.0556 28.6537 82.0556 30.6515C82.0556 49.1901 82.0556 67.7466 82.0556 86.2851V87.473H85.0235H85.041ZM42.1452 21.9942C40.2597 18.2325 34.4983 16.3427 30.0464 17.9985C25.0183 19.8704 22.1027 25.396 23.3248 30.7415C24.4596 35.6731 29.2258 39.5608 33.6778 39.0749C33.6778 38.7689 33.6778 38.4449 33.6778 38.1389C33.6778 35.5111 33.6778 32.8834 33.6778 30.2556C33.6778 28.7977 34.1841 28.2757 35.6157 28.2577C36.96 28.2577 38.3043 28.2577 39.7184 28.2577C39.7184 26.6918 39.7184 25.234 39.7184 23.7941C39.7184 22.6242 40.2771 22.0842 41.3945 22.0302C41.6389 22.0302 41.8658 22.0122 42.1452 21.9942Z" fill="#166DD6"/>
<path d="M62.1351 45.2484C62.9207 45.4824 63.7587 45.6083 64.492 45.9863C66.0458 46.7962 66.9013 48.1821 66.9187 49.982C66.9537 54.1037 66.9362 58.2253 66.9187 62.347C66.9187 63.5529 66.3426 64.1289 65.1554 64.1289C60.2845 64.1289 55.3961 64.1289 50.5251 64.1289C49.3554 64.1289 48.7967 63.5349 48.7792 62.329C48.7792 58.2433 48.7618 54.1577 48.7792 50.054C48.7967 47.5342 50.6473 45.5903 53.109 45.4104C53.2836 45.4104 53.4756 45.3924 53.6677 45.3744C51.1711 41.6307 51.206 38.4809 53.7375 36.1051C55.9896 33.9813 59.429 33.9093 61.7684 35.9611C64.3872 38.2469 64.492 41.3967 62.1176 45.2484H62.1351ZM63.8984 60.9611C63.8984 57.2534 63.9158 53.6177 63.8984 50C63.8984 49.0461 63.2175 48.5421 62.1351 48.5241C59.3068 48.5241 56.4785 48.5241 53.6327 48.5241C52.3583 48.5241 51.817 49.1001 51.817 50.432C51.817 52.5378 51.817 54.6436 51.817 56.7495C51.817 58.1353 51.817 59.5212 51.817 60.9431H63.9159L63.8984 60.9611ZM60.8781 40.7667C60.8781 39.0749 59.5687 37.653 57.9101 37.617C56.269 37.581 54.8723 38.9489 54.8374 40.6407C54.8025 42.3866 56.1642 43.8265 57.8577 43.8445C59.4988 43.8445 60.8606 42.4586 60.8781 40.7667Z" fill="#166DD6"/>
<path d="M50.665 88.2289C50.9269 86.6451 51.1539 84.9352 51.5031 83.2613C51.6427 82.6134 51.4681 82.2354 51.0317 81.8215C49.9318 80.7595 48.797 79.6976 47.8018 78.5457C47.4352 78.1318 47.2257 77.4118 47.2606 76.8359C47.2955 76.0619 47.9939 75.7739 48.6922 75.666C50.1937 75.45 51.6776 75.216 53.1791 75.018C53.7552 74.946 54.1218 74.712 54.3837 74.1361C54.9599 72.8042 55.6407 71.5263 56.2518 70.1944C56.5835 69.4744 57.0025 68.8985 57.8405 68.8805C58.7309 68.8805 59.1674 69.4924 59.4991 70.2304C60.1101 71.5443 60.7736 72.8402 61.3497 74.1721C61.5941 74.712 61.9258 74.946 62.4845 75.018C63.951 75.198 65.4176 75.432 66.8841 75.6479C67.5999 75.7559 68.2284 75.9719 68.4903 76.7819C68.7521 77.5918 68.3681 78.1497 67.8443 78.6717C66.7793 79.7336 65.7318 80.8135 64.6494 81.8575C64.2478 82.2534 64.0732 82.5954 64.1955 83.2073C64.5097 84.7192 64.7192 86.2671 64.9811 87.797C65.1033 88.4989 65.0684 89.1649 64.4573 89.6508C63.8114 90.1548 63.1654 90.0108 62.5194 89.6508C61.21 88.9309 59.9006 88.2469 58.6087 87.491C58.0849 87.185 57.6834 87.149 57.1422 87.473C55.7804 88.2829 54.3837 89.0209 52.9696 89.7408C51.7824 90.3528 50.6476 89.6328 50.665 88.2289ZM57.858 73.9021C57.3866 74.874 56.9851 75.612 56.6883 76.3859C56.2693 77.4658 55.536 77.9158 54.4536 77.9878C53.6679 78.0418 52.8823 78.2217 52.0268 78.3657C52.7601 79.1397 53.3711 79.8416 54.0171 80.4716C54.6281 81.0655 54.8551 81.7135 54.6805 82.5594C54.4885 83.4773 54.3837 84.4132 54.2091 85.5472C55.2566 84.9712 56.0597 84.4313 56.9327 84.1253C57.4914 83.9273 58.2246 83.9093 58.7833 84.1253C59.6911 84.4492 60.5117 85.0072 61.5243 85.5472C61.3497 84.3952 61.2275 83.4053 61.0354 82.4334C60.8958 81.6775 61.1053 81.1195 61.6116 80.5976C62.3099 79.8956 62.9733 79.1757 63.7415 78.3837C62.8686 78.2397 62.1179 78.0598 61.3497 78.0058C60.18 77.9338 59.4293 77.3938 59.0102 76.2599C58.7309 75.522 58.3294 74.82 57.8929 73.9021H57.858Z" fill="#166DD6"/>
</g>
</g>
<defs>
<clipPath id="clip0_108_8998">
<rect width="97" height="100" fill="white"/>
</clipPath>
</defs>
</svg>
