<svg width="109" height="100" viewBox="0 0 109 100" fill="none" xmlns="http://www.w3.org/2000/svg">
<g clip-path="url(#clip0_108_8986)">
<mask id="mask0_108_8986" style="mask-type:luminance" maskUnits="userSpaceOnUse" x="0" y="0" width="109" height="100">
<path d="M0 0H108.403V100H0V0Z" fill="white"/>
</mask>
<g mask="url(#mask0_108_8986)">
<path d="M24.0201 61.0629H17.3363V62.1548C17.3363 67.2607 17.3363 72.3507 17.3363 77.4566C17.3363 77.7778 17.3711 78.1149 17.3015 78.42C17.11 79.2068 16.5704 79.6885 15.6827 79.7045C14.7428 79.7045 14.1858 79.2228 13.9944 78.3879C13.9596 78.2273 13.977 78.0668 13.977 77.9062C13.977 71.8368 13.977 65.7514 13.977 59.6821C13.977 58.4778 14.621 57.9158 15.9438 57.8998C19.1117 57.8998 22.2795 57.8516 25.4474 57.9319C26.161 57.948 26.8747 58.3815 27.5535 58.7668C30.2862 57.948 32.3923 56.262 33.7674 53.8375C35.1076 51.4932 35.9083 48.9884 35.9779 46.2909C36.0301 44.043 36.6393 41.9235 38.084 40.061C40.9386 36.3841 46.2647 36.8176 48.1098 41.0083C48.9104 42.8227 49.2237 44.894 49.3978 46.869C49.7633 51.0115 49.2237 55.106 47.5702 59.0077C47.5354 59.088 47.5354 59.2004 47.5006 59.4252H51.3821C52.8267 59.4252 54.2714 59.4573 55.7161 59.4252C57.9092 59.377 59.6498 60.1156 60.6942 61.946C61.7559 63.7765 61.4252 65.5266 60.0676 67.2126C61.6689 69.2517 61.7733 71.3551 60.0676 73.4746C61.7211 75.5459 61.7385 77.6172 60.0676 79.7206C61.0945 80.9891 61.5993 82.386 61.1467 83.9916C60.5549 86.0308 58.6925 87.492 56.3949 87.508C47.3787 87.5401 38.3625 87.5401 29.3463 87.492C28.6849 87.492 28.0235 87.0263 27.6405 86.8818C26.7702 87.1227 26.0218 87.4759 25.2559 87.492C22.2273 87.5562 19.1987 87.5241 16.1701 87.5241C14.5688 87.5241 13.9944 86.9942 13.977 85.5491C13.977 84.666 13.9596 83.799 13.977 82.9158C14.0118 81.9364 14.7254 81.2781 15.6827 81.2941C16.6053 81.3102 17.2667 81.9364 17.3363 82.8837C17.3711 83.3654 17.3363 83.8471 17.3363 84.3609H24.0201V61.0629ZM27.4839 62.2672V63.3751C27.4839 68.8985 27.5535 74.4219 27.4491 79.9293C27.4143 81.551 27.7798 82.7874 29.1896 83.799C29.7118 84.1843 30.1644 84.4091 30.8606 84.4091C37.1267 84.393 43.3928 84.4091 49.6589 84.4091C51.7998 84.4091 53.9581 84.4091 56.099 84.4091C57.1782 84.4091 57.8918 83.7668 57.9266 82.8837C57.944 82.0327 57.3174 81.4386 56.2731 81.2941C56.0294 81.262 55.7683 81.262 55.5594 81.1657C54.7936 80.8446 54.4455 80.2826 54.5673 79.5119C54.6892 78.709 55.2113 78.2595 56.099 78.1631C57.2826 78.0186 57.9092 77.5048 57.9266 76.6377C57.944 75.7546 57.3174 75.2248 56.0642 75.0321C55.7683 74.9839 55.3332 74.9197 55.2287 74.727C54.9328 74.2132 54.5847 73.6191 54.6369 73.0893C54.6892 72.4149 55.2984 72.0135 56.099 71.9171C57.3 71.7887 57.9092 71.2588 57.9266 70.4078C57.944 69.5247 57.3174 68.9788 56.0816 68.8022C55.1243 68.6737 54.5499 68.0796 54.5673 67.2286C54.5673 66.3134 55.1069 65.8317 56.3079 65.6711C57.3174 65.5427 57.9614 64.9004 57.9266 64.0655C57.8918 63.2145 57.1956 62.6204 56.1861 62.5722C55.9076 62.5722 55.6291 62.5722 55.3332 62.5722C51.7824 62.5722 48.2142 62.6043 44.6634 62.5401C44.0716 62.5401 43.358 62.1226 42.9402 61.6891C42.4181 61.1432 42.801 60.517 43.1665 59.9069C43.8453 58.7508 44.5764 57.5787 44.9941 56.3263C46.1255 52.9383 46.2996 49.438 45.9514 45.9216C45.847 44.8298 45.5859 43.7379 45.2552 42.6943C44.9419 41.6827 44.2979 40.8799 43.0099 40.7675C41.7392 40.6711 41.1126 41.474 40.5556 42.325C39.6505 43.7219 39.3895 45.2794 39.3024 46.9011C39.0761 51.14 37.5792 54.9614 34.5506 58.2049C32.6708 60.2119 30.234 61.4964 27.4839 62.2993V62.2672Z" fill="#166DD6"/>
<path d="M56.2732 12.6686C66.1597 12.6686 76.0636 12.7649 85.9501 12.6204C90.5627 12.5562 95.7322 15.5106 95.0708 22.0938C94.9837 22.9608 94.2875 23.5549 93.4172 23.571C92.4947 23.571 91.7811 22.9608 91.7288 22.0295C91.694 21.4515 91.7288 20.8574 91.7114 20.2794C91.607 17.8227 89.4835 15.8799 86.8204 15.7835C86.5419 15.7835 86.2634 15.7835 85.9675 15.7835C66.1423 15.7835 46.3345 15.7835 26.5093 15.7835C22.6974 15.7835 20.7132 17.614 20.7132 21.1143C20.7132 32.0649 20.7132 42.9993 20.7132 53.9499C20.7132 54.271 20.748 54.6082 20.6957 54.9293C20.5565 55.7643 19.9995 56.262 19.0596 56.3263C18.1893 56.3744 17.4583 55.7643 17.3538 54.9133C17.319 54.6243 17.3538 54.3353 17.3364 54.0302C17.3364 43.0154 17.3364 32.0167 17.3364 21.0019C17.3364 15.9441 20.9046 12.6686 26.4049 12.6686C36.361 12.6686 46.3345 12.6686 56.2906 12.6686H56.2732Z" fill="#166DD6"/>
<path d="M73.1392 71.1625C74.8102 67.6943 76.4463 64.4669 77.9258 61.1914C78.5176 59.8747 79.3705 59.3609 80.9022 59.4412C82.6254 59.5376 84.3485 59.4733 86.0717 59.4573C89.6747 59.4573 91.7286 57.5787 91.7286 54.2871C91.7286 45.3597 91.7286 36.4322 91.7286 27.4887C91.7286 27.1676 91.6938 26.8304 91.7634 26.5093C91.9201 25.6744 92.4944 25.1606 93.417 25.1606C94.3569 25.1606 94.9139 25.6744 95.0879 26.5093C95.1401 26.7983 95.1227 27.0873 95.1227 27.3764C95.1227 36.3359 95.1227 45.3115 95.1227 54.271C95.1227 59.2646 91.5371 62.5562 86.1239 62.5722C84.7837 62.5722 83.4434 62.6204 82.1032 62.5562C81.2851 62.508 80.8674 62.7489 80.5367 63.4714C78.6916 67.4053 76.7944 71.307 74.8972 75.2087C74.7057 75.6101 74.4446 76.0437 74.0791 76.3006C73.1566 76.9749 72.0252 76.5735 71.4682 75.4175C69.571 71.5157 67.6912 67.5979 65.8114 63.6801C65.5155 63.0379 65.2892 62.5241 64.3145 62.492C63.479 62.4598 62.9742 61.7855 63.009 60.9666C63.0438 60.1477 63.5486 59.6018 64.4189 59.5055C65.1499 59.4091 65.9506 59.3288 66.612 59.5376C67.1864 59.7302 67.7956 60.2601 68.0567 60.7739C69.6406 63.8889 71.1201 67.036 72.6344 70.183C72.7563 70.4399 72.8955 70.6968 73.1392 71.1785V71.1625Z" fill="#166DD6"/>
<path d="M54.5153 26.702C47.466 26.702 40.434 26.702 33.3847 26.702C33.0366 26.702 32.671 26.7341 32.3229 26.6699C31.4178 26.5093 30.8608 25.9955 30.8608 25.1445C30.8608 24.2774 31.4004 23.7636 32.3229 23.6031C32.6362 23.5549 32.9495 23.5709 33.2802 23.5709C47.4312 23.5709 61.5995 23.5709 75.7504 23.5709C76.0637 23.5709 76.3944 23.5388 76.7077 23.587C77.6128 23.7476 78.1698 24.2614 78.1698 25.1124C78.1698 25.9794 77.6128 26.4932 76.7077 26.6538C76.3596 26.718 76.0115 26.6859 75.646 26.6859C68.5966 26.6859 61.5647 26.6859 54.5153 26.6859V26.702Z" fill="#166DD6"/>
<path d="M54.6024 36.0629C47.5182 36.0629 40.4514 36.0629 33.3673 36.0629C33.0192 36.0629 32.6536 36.095 32.3055 36.0308C31.4004 35.8702 30.8608 35.3404 30.8608 34.4733C30.8608 33.6063 31.4352 33.1085 32.3403 32.948C32.6536 32.8998 32.9669 32.9319 33.2977 32.9319C47.4486 32.9319 61.6169 32.9319 75.7678 32.9319C76.0115 32.9319 76.2552 32.9319 76.4989 32.9319C77.491 33.0122 78.1698 33.6544 78.1698 34.5054C78.1698 35.3564 77.4736 35.9666 76.4641 36.0469C76.1856 36.0629 75.9071 36.0469 75.6112 36.0469C68.5966 36.0469 61.5995 36.0469 54.585 36.0469L54.6024 36.0629Z" fill="#166DD6"/>
<path d="M59.7021 42.2928C61.2512 42.2928 62.8004 42.2928 64.3495 42.2928C65.5853 42.2928 66.3511 42.903 66.3511 43.8503C66.3511 44.7977 65.5853 45.4078 64.3495 45.4078C61.1816 45.4078 58.0138 45.4078 54.8459 45.4078C53.6101 45.4078 52.8442 44.7977 52.8442 43.8503C52.8442 42.903 53.5927 42.3089 54.8459 42.2928C56.4646 42.2928 58.0834 42.2928 59.7021 42.2928Z" fill="#166DD6"/>
</g>
</g>
<defs>
<clipPath id="clip0_108_8986">
<rect width="108.403" height="100" fill="white"/>
</clipPath>
</defs>
</svg>
