<svg width="97" height="100" viewBox="0 0 97 100" fill="none" xmlns="http://www.w3.org/2000/svg">
<g clip-path="url(#clip0_108_8973)">
<mask id="mask0_108_8973" style="mask-type:luminance" maskUnits="userSpaceOnUse" x="0" y="0" width="97" height="100">
<path d="M0 0H96.2515V100H0V0Z" fill="white"/>
</mask>
<g mask="url(#mask0_108_8973)">
<path d="M32.6555 0.204142C33.5666 0.649576 33.8167 1.41053 33.8167 2.43131C33.7988 17.3348 33.8167 32.2383 33.8167 47.1418C33.8167 47.5315 33.8167 47.9027 33.8167 48.3667H62.6671V47.1418C62.6671 32.2383 62.6671 17.3348 62.6671 2.43131C62.6671 1.41053 62.9172 0.668136 63.8283 0.204142H64.7751C65.6683 0.723816 65.9005 1.52189 65.9005 2.56123C65.8827 17.409 65.9005 32.2569 65.9005 47.0861V48.4224C66.4007 48.4224 66.8116 48.4224 67.2046 48.4224C76.1188 48.4224 85.0329 48.4224 93.9292 48.4224C95.537 48.4224 96.3051 48.9792 96.2873 50.1113C96.2873 51.2435 95.5191 51.7632 93.8935 51.7632C85.0151 51.7632 76.1366 51.7632 67.2582 51.7632C66.8473 51.7632 66.4543 51.7632 65.8827 51.7632V53.0252C65.8827 67.8359 65.8827 82.6466 65.8827 97.4573C65.8827 97.847 65.9005 98.2368 65.8291 98.6266C65.6683 99.4803 64.9359 100.056 64.132 99.9814C63.346 99.9072 62.7743 99.2947 62.7029 98.441C62.6671 98.0883 62.7029 97.7357 62.7029 97.3645C62.7029 82.6095 62.7029 67.873 62.7029 53.118V51.8188H33.7988V53.118C33.7988 67.9287 33.7988 82.7394 33.7988 97.5501C33.7988 99.2019 33.2629 100.019 32.1732 99.9814C31.1371 99.9443 30.6012 99.1462 30.6012 97.5686C30.6012 82.7208 30.6012 67.873 30.6012 53.0438C30.6012 52.654 30.6012 52.2828 30.6012 51.7632C30.1189 51.7632 29.7258 51.7632 29.3328 51.7632C20.3829 51.7632 11.4509 51.7632 2.50104 51.7632C1.51851 51.7632 0.732496 51.5404 0.178711 50.6681V49.4989C0.714632 48.608 1.51851 48.4038 2.50104 48.4038C11.4331 48.4224 20.3829 48.4038 29.315 48.4038C29.708 48.4038 30.101 48.4038 30.6012 48.4038C30.6012 47.9027 30.6012 47.5315 30.6012 47.1418C30.6012 32.2754 30.6012 17.409 30.6012 2.52411C30.6012 1.48477 30.8334 0.686696 31.7266 0.167023H32.6734L32.6555 0.204142Z" fill="#166DD6"/>
<path d="M59.4514 75.0557C59.4514 79.3058 59.4514 83.5746 59.4514 87.8248C59.4514 92.242 56.7897 94.9888 52.538 94.9888C49.6262 94.9888 46.7143 94.9888 43.8204 94.9888C39.6938 94.9703 37.0142 92.1863 37.0142 87.899C37.0142 79.3244 37.0142 70.7498 37.0142 62.1752C37.0142 57.8879 39.6938 55.1225 43.8382 55.1039C46.7858 55.1039 49.7155 55.1039 52.6631 55.1039C56.7897 55.1225 59.4514 57.9064 59.4693 62.1937C59.4693 66.481 59.4693 70.7683 59.4693 75.0557H59.4514ZM56.1823 75V66.8151H40.2654V75H56.1823ZM40.2118 85.3378C40.2118 86.4885 40.1761 87.4536 40.2118 88.4187C40.319 90.3303 41.5874 91.6295 43.4274 91.6481C46.6429 91.6852 49.8584 91.6852 53.0739 91.6481C54.7174 91.6481 55.9679 90.5159 56.1466 88.827C56.2716 87.7134 56.1644 86.5813 56.1644 85.3563C50.8588 87.1195 45.571 87.1195 40.194 85.3378H40.2118ZM40.2654 63.3073H56.1823C56.1823 62.5649 56.2537 61.8782 56.1823 61.2286C55.9501 59.5954 54.7532 58.4632 53.1633 58.4447C49.8763 58.4075 46.5893 58.4075 43.3202 58.4447C41.7303 58.4632 40.5334 59.5954 40.3011 61.2286C40.2118 61.8968 40.3011 62.5649 40.3011 63.3073H40.2654ZM56.2359 78.415H40.2476C40.2476 78.7676 40.2118 79.046 40.2118 79.3244C40.2118 79.974 40.1582 80.6236 40.2297 81.2732C40.2654 81.5145 40.5334 81.8114 40.7656 81.9042C45.7318 83.8344 50.7159 83.8159 55.6821 81.9042C55.9143 81.8114 56.2001 81.4959 56.218 81.2546C56.2716 80.3266 56.2359 79.3801 56.2359 78.3964V78.415Z" fill="#166DD6"/>
<path d="M91.4281 25.2041C91.4281 29.4543 91.4281 33.7231 91.4281 37.9733C91.4281 42.3534 88.8021 45.0816 84.5861 45.1002C81.6743 45.1002 78.7625 45.1002 75.8685 45.1002C71.6704 45.0816 69.0444 42.3348 69.0444 37.9547C69.0444 29.4172 69.0444 20.8612 69.0444 12.3237C69.0444 7.96212 71.6883 5.21528 75.8864 5.19672C78.7625 5.19672 81.6386 5.19672 84.5147 5.19672C88.8557 5.19672 91.4281 7.90644 91.4281 12.435C91.4281 16.6852 91.4281 20.954 91.4281 25.2041ZM72.26 25.0928H88.159V16.8894H72.26V25.0928ZM72.2421 35.4491C72.2421 36.6184 72.1885 37.6763 72.2421 38.7528C72.3314 40.3489 73.564 41.7038 75.0825 41.7223C78.5124 41.778 81.9423 41.778 85.3722 41.7223C86.7477 41.7038 87.9982 40.5159 88.1411 39.124C88.2661 37.9547 88.159 36.7483 88.159 35.4677C82.8355 37.2494 77.5477 37.2123 72.2242 35.4677L72.2421 35.4491ZM88.2304 13.4558C88.2304 12.9547 88.2304 12.5464 88.2304 12.1195C88.1947 9.83666 86.9799 8.53747 84.8005 8.53747C81.71 8.53747 78.6196 8.51891 75.5112 8.53747C73.8499 8.53747 72.6172 9.52114 72.3314 11.1173C72.2064 11.8597 72.3136 12.6392 72.3136 13.4373H88.2304V13.4558ZM72.2421 28.5078C72.2421 29.51 72.2064 30.4566 72.26 31.3845C72.26 31.6073 72.5458 31.9413 72.7602 32.0341C77.7264 33.9643 82.6926 33.9458 87.6766 32.0713C87.891 31.997 88.1947 31.7186 88.1947 31.5145C88.2483 30.5308 88.2126 29.5286 88.2126 28.5078H72.2242H72.2421Z" fill="#166DD6"/>
<path d="M91.4281 75.0371C91.4281 79.2873 91.4281 83.556 91.4281 87.8062C91.4281 92.2606 88.8199 94.9703 84.5504 94.9888C81.6386 94.9888 78.7267 94.9888 75.8328 94.9888C71.6883 94.9703 69.0444 92.2049 69.0444 87.9176C69.0444 79.343 69.0444 70.7683 69.0444 62.1937C69.0444 57.8879 71.6883 55.1225 75.8328 55.1039C78.7803 55.1039 81.71 55.1039 84.6576 55.1039C88.8199 55.1225 91.4281 57.8508 91.4459 62.1752C91.4459 66.4625 91.4459 70.7498 91.4459 75.0371H91.4281ZM88.1411 83.3333V75.1113H72.2957V83.3333H88.1411ZM88.1768 64.7179C88.1768 63.4558 88.2661 62.2865 88.159 61.1358C88.016 59.6696 86.7298 58.4818 85.265 58.4632C81.9244 58.4075 78.5838 58.4261 75.2433 58.4632C73.7248 58.4818 72.4565 59.6511 72.2957 61.1915C72.1706 62.3237 72.2778 63.4929 72.2778 64.7364C77.6013 62.9547 82.8712 62.9547 88.1947 64.7179H88.1768ZM88.1768 86.7854H72.2242C72.2242 87.3793 72.2242 87.8805 72.2242 88.4001C72.2778 90.2375 73.5462 91.6295 75.3147 91.6481C78.6017 91.6852 81.8708 91.6852 85.1578 91.6481C86.6941 91.6481 87.9625 90.4603 88.159 88.9569C88.2483 88.2702 88.159 87.5464 88.159 86.7854H88.1768ZM88.1768 71.6778C88.1947 71.3808 88.2126 71.1952 88.2126 70.9911C88.2126 70.3044 88.2661 69.6176 88.1947 68.9495C88.159 68.6525 87.891 68.2257 87.6409 68.1329C82.7104 66.2769 77.7621 66.2398 72.8137 68.1329C72.5815 68.2257 72.26 68.5226 72.2421 68.7268C72.1885 69.6919 72.2064 70.657 72.2064 71.6592H88.159L88.1768 71.6778Z" fill="#166DD6"/>
<path d="M11.4152 80.0482C11.4152 82.7023 11.4152 85.2264 11.4152 87.7505C11.4152 88.4558 11.433 89.1796 11.4152 89.8849C11.3616 90.9799 10.7185 91.6481 9.78952 91.6295C8.84273 91.6295 8.23535 90.9799 8.23535 89.8478C8.23535 86.0245 8.23535 82.1826 8.23535 78.3593C8.23535 72.9955 8.23535 67.6503 8.23535 62.2866C8.23535 60.5976 8.75341 60.0223 10.3433 60.0594C12.4691 60.1151 14.6307 59.948 16.685 60.3563C21.4547 61.3214 24.6703 66.0356 24.1879 70.954C23.6699 76.1507 19.7041 79.8812 14.4699 80.0297C13.5052 80.0482 12.5406 80.0297 11.4152 80.0297V80.0482ZM11.4687 63.3073V76.6518C12.755 76.6518 14.0412 76.7446 15.3095 76.6333C18.4 76.3549 20.8295 73.6637 21.0081 70.4157C21.1689 67.242 19.0788 64.2168 16.0955 63.6229C14.6128 63.3259 13.0765 63.4001 11.4866 63.3073H11.4687Z" fill="#166DD6"/>
<path d="M43.4098 28.4521C43.4098 28.8975 43.4098 29.2316 43.4098 29.5843C43.4098 32.4053 43.4098 35.2264 43.4098 38.0475C43.4098 39.3467 42.7845 40.1262 41.802 40.1076C40.8552 40.0891 40.23 39.3281 40.23 38.0846C40.23 28.8975 40.23 19.7105 40.23 10.5234C40.23 9.09428 40.8016 8.50037 42.1772 8.51893C44.3208 8.55605 46.5181 8.38901 48.6261 8.77877C53.3422 9.63252 56.6649 14.3467 56.2183 19.1908C55.736 24.4432 51.8416 28.3408 46.9111 28.4521C45.7857 28.4707 44.6781 28.4521 43.4276 28.4521H43.4098ZM43.4455 25.1299C44.6245 25.1299 45.7142 25.1485 46.804 25.1299C49.7694 25.0557 52.3775 22.7728 52.8956 19.7847C53.4494 16.6295 51.8773 13.5486 49.0727 12.3422C47.2505 11.5627 45.357 11.9154 43.4455 11.8597V25.1299Z" fill="#166DD6"/>
<path d="M5.00188 25.1485C5.00188 20.8983 5.00188 16.6295 5.00188 12.3793C5.00188 7.925 7.61003 5.21528 11.8795 5.19672C14.7914 5.19672 17.7032 5.19672 20.5972 5.19672C24.7416 5.21528 27.3855 7.96212 27.3855 12.268C27.3855 20.8426 27.3855 29.4172 27.3855 37.9918C27.3855 42.2977 24.7416 45.0631 20.5972 45.0816C17.6318 45.0816 14.6485 45.1002 11.683 45.0816C7.64576 45.0445 5.00188 42.2977 4.98401 38.1032C4.96615 33.7788 4.98401 29.4543 4.98401 25.1485H5.00188ZM8.271 25.1856V33.4261H24.1521V25.1856H8.271ZM8.25313 14.8292C13.5766 13.0661 18.8465 13.0661 24.17 14.8292C24.17 13.6228 24.2593 12.4907 24.1521 11.3771C24.0092 9.8181 22.7587 8.59315 21.2582 8.55603C17.8819 8.50035 14.5234 8.50035 11.1471 8.55603C9.68226 8.57459 8.39605 9.78098 8.25313 11.2472C8.14595 12.3979 8.23527 13.5672 8.23527 14.8292H8.25313ZM24.2415 36.8782H8.21741C8.21741 37.4536 8.21741 37.9547 8.21741 38.4744C8.271 40.386 9.52148 41.7409 11.3615 41.7594C14.6127 41.7966 17.864 41.7966 21.1152 41.7594C22.6337 41.7594 23.8306 40.7201 24.1164 39.1982C24.2593 38.4744 24.2057 37.732 24.2415 36.8968V36.8782ZM24.17 21.7891C24.17 21.5479 24.2057 21.3623 24.2057 21.1581C24.2057 20.4157 24.2415 19.6548 24.1879 18.9309C24.17 18.6897 23.9199 18.3556 23.6877 18.2628C18.6857 16.3326 13.6838 16.314 8.69974 18.2628C8.50323 18.337 8.25313 18.6525 8.23527 18.8567C8.18168 19.8218 8.21741 20.7684 8.21741 21.7706H24.17V21.7891Z" fill="#166DD6"/>
</g>
</g>
<defs>
<clipPath id="clip0_108_8973">
<rect width="96.2515" height="100" fill="white"/>
</clipPath>
</defs>
</svg>
